<?xml version="1.0" standalone="no"?>
<!DOCTYPE svg PUBLIC "-//W3C//DTD SVG 20010904//EN"
 "http://www.w3.org/TR/2001/REC-SVG-20010904/DTD/svg10.dtd">
<svg version="1.0" xmlns="http://www.w3.org/2000/svg"
 width="150.000000px" height="50.000000px" viewBox="0 0 450.000000 199.000000"
 preserveAspectRatio="xMidYMid meet">
<metadata>
Created by potrace 1.10, written by Peter Selinger 2001-2011
</metadata>
<g transform="translate(0.000000,199.000000) scale(0.050000,-0.050000)"
fill="#000000" stroke="none">
<path d="M5080 3876 c-6 -63 -4 -135 3 -160 10 -34 14 -36 15 -10 1 19 16 41
33 47 27 10 27 14 1 34 -17 13 -33 64 -36 113 -7 90 -7 89 -16 -24z"/>
<path d="M2858 3796 c-1 -3 -5 -33 -8 -66 -2 -33 -6 -71 -7 -85 -2 -14 -30
-42 -63 -62 -33 -20 -53 -44 -45 -53 8 -9 -1 -11 -21 -4 -26 10 -34 4 -30 -21
4 -21 -5 -33 -20 -30 -15 4 -22 -2 -16 -12 6 -10 -8 -35 -32 -55 -24 -21 -35
-25 -26 -10 11 19 9 24 -7 14 -13 -8 -23 -31 -23 -52 0 -21 -10 -44 -23 -52
-15 -9 -18 -5 -7 12 11 18 8 21 -8 11 -14 -8 -20 -20 -14 -26 22 -21 -33 -65
-80 -65 -48 0 -67 -30 -27 -44 13 -4 10 -21 -8 -45 -26 -35 -33 -36 -65 -10
-21 17 -30 19 -21 4 9 -14 6 -25 -6 -25 -11 0 -21 -12 -21 -26 0 -20 -22 -24
-85 -14 -96 13 -180 -14 -309 -100 -67 -46 -85 -51 -94 -27 -7 16 -21 24 -32
17 -11 -7 -20 -2 -20 11 0 18 -8 18 -30 -1 -17 -14 -30 -16 -30 -5 0 11 -20
27 -45 35 -61 20 -73 24 -85 30 -5 3 -17 7 -25 8 -150 34 -225 60 -225 79 0
13 -9 10 -19 -6 -16 -25 -24 -25 -57 6 -35 31 -40 32 -51 2 -9 -21 -26 -28
-53 -19 -22 7 -40 4 -40 -6 0 -10 -35 -24 -77 -31 -69 -11 -292 -151 -272
-170 8 -9 -43 -63 -60 -63 -6 0 -11 20 -11 45 -1 36 -4 39 -20 15 -11 -16 -20
-67 -20 -113 0 -109 -24 -124 -211 -132 l-159 -7 172 -4 172 -4 15 -145 c8
-80 16 -157 16 -171 1 -20 9 -19 31 4 26 26 37 20 94 -49 36 -42 71 -72 78
-65 6 7 12 4 12 -6 0 -11 34 -16 77 -12 82 8 236 127 213 164 -7 11 -4 20 7
20 25 0 47 -58 31 -83 -7 -11 -25 -15 -40 -9 -28 11 -36 -8 -29 -73 2 -19 -7
-35 -20 -35 -13 0 -18 -14 -11 -33 11 -26 8 -28 -16 -9 -19 16 -33 17 -41 3
-8 -12 -49 -21 -93 -21 -49 0 -75 -8 -68 -20 7 -11 34 -20 61 -20 66 0 64 -6
-52 -121 -57 -57 -95 -110 -87 -123 8 -13 5 -17 -7 -9 -11 7 -26 -1 -33 -19
-18 -47 -15 -72 8 -58 12 7 15 23 7 34 -8 13 -4 16 9 8 13 -7 121 89 258 229
287 296 373 346 522 306 66 -18 42 -58 -31 -51 -88 9 -198 -54 -328 -189 -62
-64 -184 -191 -272 -282 -87 -91 -147 -165 -133 -165 14 0 31 9 39 21 7 11 31
15 53 8 25 -8 36 -6 29 7 -7 11 56 91 141 177 85 86 148 142 141 124 -7 -18
-6 -39 1 -47 8 -7 24 21 36 63 l22 77 108 0 108 0 3 -173 c1 -96 7 -181 12
-190 39 -65 37 -147 -3 -147 -62 0 -51 -36 13 -44 39 -4 57 -19 61 -51 4 -25
15 -45 25 -45 11 0 19 -12 19 -27 0 -15 18 -43 40 -63 21 -19 34 -43 28 -53
-6 -9 2 -17 18 -17 28 0 85 -95 76 -128 -2 -10 9 -8 25 5 23 19 40 14 89 -26
36 -31 85 -51 124 -51 85 0 69 -46 -22 -62 -66 -12 -66 -13 22 -17 50 -3 111
-11 137 -18 l47 -13 -41 -37 c-23 -21 -51 -30 -65 -22 -15 9 -19 7 -11 -7 9
-14 -13 -27 -59 -36 -97 -18 -208 33 -208 97 -1 68 -35 113 -58 77 -16 -24
-24 -23 -53 6 -19 19 -46 30 -62 24 -15 -6 -27 -1 -27 10 0 11 -14 7 -31 -11
-18 -17 -48 -31 -68 -31 -42 0 -87 -47 -66 -68 8 -9 -1 -27 -21 -41 -45 -34
-72 -275 -35 -320 13 -16 18 -40 10 -52 -8 -13 -2 -32 13 -43 22 -15 22 -21 3
-29 -34 -14 -32 -47 4 -47 16 0 85 -49 154 -109 69 -60 129 -106 134 -101 4 5
24 -11 43 -35 28 -34 41 -39 63 -20 18 14 39 16 58 4 46 -29 159 -22 298 20
84 26 137 33 152 20 28 -23 49 -4 49 44 0 21 12 37 26 37 15 0 52 27 84 60 32
33 64 60 72 60 59 0 121 43 99 69 -18 21 -14 33 17 55 21 15 42 41 46 57 3 16
17 38 30 49 13 11 45 62 72 112 l48 93 21 -53 21 -52 1 50 c1 87 27 169 59
195 17 14 22 25 10 25 -39 0 8 134 62 178 27 23 47 20 131 -16 112 -48 182
-53 218 -17 19 19 27 15 36 -20 15 -57 42 -58 51 -1 6 41 8 42 41 8 19 -19 35
-29 35 -21 0 8 12 4 27 -8 15 -13 30 -19 35 -15 20 18 331 30 356 14 16 -10
27 -46 26 -80 -1 -34 7 -62 17 -62 11 0 19 32 19 70 0 72 18 80 155 75 14 0
25 6 25 14 0 7 34 33 76 56 l75 43 95 -59 c83 -52 94 -67 94 -129 0 -39 9 -70
20 -70 11 0 20 32 20 71 0 61 6 70 38 60 20 -7 96 7 167 30 191 63 304 38 306
-67 1 -40 10 -72 20 -69 11 3 16 13 13 23 -35 106 123 172 239 100 40 -24 97
-26 195 -5 67 14 93 12 105 -7 13 -20 16 -21 17 -1 0 14 50 79 111 146 60 66
116 147 122 179 7 33 20 55 29 49 10 -6 12 3 6 20 -12 30 9 40 67 32 40 -5 29
31 -16 51 -35 16 -37 23 -14 55 39 53 205 66 233 18 20 -33 21 -33 21 2 1 32
12 35 86 22 117 -19 149 -67 70 -104 l-45 -21 53 -20 c41 -17 50 -31 43 -70
-5 -27 7 -79 26 -116 20 -38 37 -74 37 -81 1 -8 9 -21 19 -30 11 -10 12 -5 1
13 -14 26 -12 26 17 3 18 -15 29 -35 23 -44 -5 -9 9 -22 31 -29 22 -7 40 -21
40 -31 0 -11 17 -19 39 -19 46 0 103 -73 87 -112 -5 -16 -1 -28 11 -28 11 0
23 25 27 55 3 32 19 56 36 57 79 4 180 35 180 54 0 11 5 16 11 10 31 -31 237
257 239 334 0 11 14 20 30 20 17 0 28 -11 25 -25 -3 -14 3 -25 14 -25 10 0 21
16 25 35 4 19 20 36 36 37 84 6 100 9 98 23 -7 39 4 65 27 65 14 0 37 18 51
40 27 44 17 64 -63 136 -78 70 -133 134 -133 155 0 12 -31 37 -70 55 -89 42
-90 74 -1 74 38 0 74 9 81 20 7 12 -19 20 -68 20 -78 0 -122 26 -83 49 20 13
13 46 -26 131 -57 123 -256 241 -354 210 -26 -8 -43 -2 -51 19 -16 40 -48 40
-48 1 0 -44 -46 -37 -81 12 -16 23 -51 52 -79 64 -48 21 -46 22 40 35 l90 13
-75 3 c-53 2 -88 18 -119 53 -24 27 -55 50 -70 50 -15 0 -32 13 -39 30 -6 16
-17 26 -25 21 -38 -23 -69 26 -41 62 26 33 26 34 -3 12 -39 -30 -92 18 -115
107 -8 30 -26 59 -39 63 -16 6 -19 -4 -11 -27 10 -23 6 -30 -10 -20 -12 8 -23
25 -23 38 0 13 -27 45 -59 70 -36 29 -54 58 -47 77 7 19 -4 33 -31 41 -25 6
-43 27 -43 48 0 21 -7 37 -15 36 -39 -7 -48 5 -26 31 21 25 15 28 -36 22 -45
-6 -58 -1 -50 19 6 15 -9 44 -33 64 -24 20 -59 50 -78 66 -20 17 -42 55 -49
86 -15 58 -53 57 -53 -2 0 -27 -10 -23 -45 18 -25 28 -56 48 -70 43 -14 -4
-25 -1 -25 9 0 9 -19 28 -42 43 -23 14 -36 16 -29 4 7 -11 4 -21 -8 -21 -47 0
-17 58 34 66 30 4 -12 8 -95 8 -82 0 -127 -3 -100 -8 115 -19 124 -65 12 -66
-20 0 -59 -25 -85 -55 -37 -44 -47 -48 -47 -20 0 19 -9 35 -20 35 -11 0 -20
-31 -20 -70 0 -38 -9 -70 -20 -70 -11 0 -20 -14 -20 -31 0 -16 -13 -35 -30
-42 -16 -6 -30 -23 -30 -37 0 -14 -18 -30 -40 -36 -22 -6 -40 -22 -40 -37 1
-21 5 -20 19 2 10 17 25 24 32 17 21 -21 -85 -116 -129 -116 -26 0 -37 -10
-30 -27 10 -28 -71 -93 -115 -93 -13 0 -45 -20 -71 -43 -40 -39 -46 -40 -46
-9 0 19 -9 29 -20 22 -11 -7 -20 -30 -20 -51 0 -22 -9 -39 -20 -39 -11 0 -20
-18 -20 -40 0 -22 -13 -40 -30 -40 -16 0 -30 -9 -30 -20 0 -11 -12 -20 -26
-20 -15 0 -42 -35 -61 -78 -39 -89 -106 -122 -246 -122 l-87 0 0 243 c0 297
-12 303 -24 12 -5 -118 -15 -220 -22 -227 -19 -20 -117 11 -104 33 7 10 -2 19
-20 19 -18 0 -27 9 -20 20 7 11 -2 20 -21 20 -18 0 -70 40 -116 89 -118 126
-132 145 -118 159 6 7 1 12 -12 12 -13 0 -23 14 -23 31 0 16 -13 35 -30 42
-16 6 -30 24 -30 39 0 15 14 28 30 28 17 0 30 9 30 20 0 11 -18 20 -40 20 -29
0 -40 13 -40 49 0 27 -9 54 -19 60 -11 7 -14 28 -8 47 8 25 6 27 -8 8 -10 -15
-15 -51 -11 -80 l8 -54 -30 50 c-17 28 -31 71 -31 96 -1 26 -10 41 -21 34 -11
-7 -20 9 -20 35 0 26 -18 67 -40 90 -22 24 -40 52 -40 62 0 11 -27 32 -61 46
-42 19 -58 38 -52 62 8 30 -5 35 -81 35 -78 0 -87 -4 -66 -30 20 -24 19 -32
-7 -42 -41 -15 -74 6 -61 41 6 15 1 33 -11 40 -11 7 -22 11 -23 7z m2808 -336
c63 -57 206 -214 319 -348 113 -134 320 -350 460 -481 256 -238 294 -285 209
-264 -34 9 -78 -14 -182 -98 -134 -107 -172 -127 -172 -91 0 17 145 144 234
204 41 28 44 35 18 56 -35 29 -60 17 -155 -69 -103 -93 -260 -209 -284 -209
-30 0 96 127 242 244 114 91 141 137 79 136 -13 -1 -132 -91 -263 -200 -224
-187 -313 -246 -248 -166 48 61 239 234 344 313 117 87 125 99 89 128 -42 34
-507 -380 -502 -447 7 -89 -57 -47 -168 112 -187 269 -204 339 -126 531 62
152 33 302 -104 544 -159 280 -145 279 -314 28 -123 -183 -197 -257 -399 -401
-116 -82 -253 -214 -399 -382 -79 -91 -102 -66 -38 42 73 121 281 327 438 431
177 117 239 181 337 346 176 297 296 305 585 41z m-2542 165 c17 -19 79 -129
137 -245 242 -483 429 -690 704 -779 76 -24 85 -61 15 -61 -20 0 -49 -12 -64
-26 -14 -14 -100 -87 -191 -162 -91 -74 -165 -140 -165 -145 0 -40 165 32 246
108 53 49 102 84 108 77 7 -6 -25 -44 -71 -84 -46 -40 -83 -85 -83 -100 0 -29
-33 -39 -196 -58 -149 -17 -96 61 221 318 52 42 95 85 95 94 0 53 -96 -5 -320
-194 -137 -116 -266 -220 -287 -231 -124 -69 164 217 388 384 57 42 108 82
113 87 43 43 -82 48 -130 5 -99 -90 -348 -302 -446 -380 -102 -82 -109 -113
-26 -113 29 0 45 -9 38 -20 -18 -29 -101 -24 -128 7 -39 47 89 188 391 433 79
63 156 120 170 125 22 7 22 14 0 42 -42 50 -63 42 -203 -88 -164 -152 -338
-288 -351 -274 -20 19 91 131 282 286 151 123 185 160 167 182 -34 40 -50 34
-143 -51 -288 -267 -333 -291 -376 -209 -16 29 -66 69 -112 88 -115 50 -118
81 -39 352 147 503 161 657 47 527 -237 -270 -555 -600 -579 -600 -70 0 4 92
449 555 190 198 267 232 339 150z m2245 -307 c-7 -10 -1 -17 13 -13 14 3 29
-13 34 -34 8 -36 5 -37 -28 -10 -21 17 -30 19 -21 4 12 -19 -14 -25 -105 -25
-66 0 -125 9 -132 20 -7 11 -3 20 9 20 11 0 21 16 21 35 1 30 3 31 20 5 16
-25 19 -25 20 -2 0 70 66 99 125 58 31 -22 50 -48 44 -58z m-6 -120 c61 -12
112 -32 115 -45 2 -13 7 -60 11 -106 4 -45 13 -101 20 -124 8 -24 6 -54 -2
-68 -9 -14 -17 -29 -18 -35 -4 -20 -32 -91 -48 -120 -10 -21 -61 -34 -163 -41
l-148 -12 165 -3 c159 -4 165 -6 165 -51 0 -92 24 -168 72 -223 26 -31 48 -64
48 -73 0 -36 4 -48 25 -73 23 -28 -72 -15 -115 16 -19 14 -203 9 -313 -8 -62
-9 -72 25 -76 247 -4 216 -21 162 -21 -67 l0 -214 -85 -39 c-98 -44 -181 -50
-219 -14 -15 14 -58 42 -96 64 -102 57 -120 80 -120 158 0 107 -26 159 -41 83
-11 -54 -14 -56 -29 -20 -9 22 -28 54 -44 72 -49 58 -1 138 84 138 38 0 70 9
70 20 0 11 -9 20 -20 20 -34 0 -22 45 23 94 24 25 60 46 79 46 20 0 48 24 62
53 14 30 44 56 66 59 22 3 58 29 81 57 22 28 47 51 55 51 25 0 97 69 115 110
10 25 17 -50 18 -198 1 -300 18 -297 22 4 4 282 15 292 262 242z m-2535 -36
c-7 -18 -13 -48 -12 -67 1 -19 -7 -35 -18 -35 -11 0 -15 -9 -8 -20 12 -19 -23
-148 -52 -190 -8 -11 -11 -55 -7 -98 4 -42 2 -72 -4 -66 -6 6 -34 3 -63 -8
-77 -30 -154 8 -155 77 -1 30 -9 79 -17 108 -11 39 -6 62 23 90 21 20 44 53
52 73 7 20 22 31 33 24 12 -7 19 -6 15 4 -3 9 3 18 13 20 9 2 27 24 40 49 32
64 187 101 160 39z m-1361 -291 c75 -27 190 -80 256 -120 139 -82 150 -84 167
-33 50 160 282 233 392 124 141 -142 45 -329 -163 -319 -122 6 -125 2 -181
-177 -147 -480 -29 -866 265 -866 291 0 436 214 506 744 40 307 121 408 227
285 47 -55 48 -62 35 -288 -71 -1224 -581 -2044 -1163 -1872 -220 66 -370 385
-257 547 46 64 69 54 69 -31 2 -255 382 -320 624 -108 140 123 367 551 404
763 14 77 21 84 -98 -97 -191 -292 -662 -257 -818 61 -115 236 -108 632 18
943 59 146 70 135 -190 194 -270 61 -442 62 -553 4 -119 -63 -148 -167 -57
-209 83 -37 50 -90 -42 -67 -68 17 -128 123 -128 227 0 286 321 424 687 295z
m1168 -286 c-55 -58 -151 -257 -112 -233 15 9 18 5 7 -12 -9 -14 -15 -65 -13
-112 3 -69 -4 -88 -37 -98 -48 -15 -52 -41 -10 -57 28 -11 27 -20 -1 -88 -18
-41 -36 -92 -40 -114 -5 -21 -18 -44 -30 -52 -12 -7 -21 -21 -19 -31 2 -9 -7
-20 -18 -24 -12 -4 -22 7 -22 26 0 52 -36 15 -51 -52 -12 -57 -18 -61 -74 -50
-67 13 -116 66 -101 106 6 14 1 26 -11 26 -43 0 -24 243 19 255 46 12 50 45 6
45 -24 0 -29 12 -21 45 7 25 13 61 13 81 0 22 9 31 23 22 15 -9 18 -5 8 10
-18 30 46 82 83 68 14 -6 26 -1 26 11 0 12 13 17 28 11 15 -6 42 10 60 35 18
25 32 38 32 29 0 -26 117 126 131 170 9 29 31 38 94 38 l82 0 -52 -55z m1629
-138 c75 -37 82 -57 47 -125 -40 -77 -39 -82 9 -82 48 0 52 -34 8 -82 -59 -65
25 -118 189 -118 237 0 295 -137 178 -425 -68 -167 -70 -200 -11 -191 53 7
105 92 141 227 73 278 321 462 496 368 23 -12 39 -13 39 -2 0 52 135 37 229
-25 l45 -29 -44 -136 c-75 -229 -100 -365 -73 -392 39 -39 83 27 131 198 32
115 53 159 80 164 127 24 11 -409 -134 -498 -116 -70 -294 -21 -294 81 0 21
-9 43 -20 50 -11 7 -20 4 -20 -6 0 -130 -211 -161 -320 -47 l-74 78 -34 -64
c-72 -134 -250 -175 -346 -79 -63 63 -58 195 16 424 52 163 55 155 -54 169
l-82 10 -24 -132 c-82 -455 -272 -660 -427 -461 l-49 61 -61 -61 c-101 -102
-263 -75 -309 51 l-24 67 -57 -70 c-210 -255 -481 145 -317 467 82 161 330
267 418 179 18 -18 29 -16 49 10 23 32 33 33 129 4 134 -40 137 -47 88 -195
-97 -296 -110 -438 -36 -409 29 11 114 207 114 262 0 24 67 311 93 400 10 32
4 36 -40 25 -61 -16 -83 11 -53 67 14 25 42 40 77 40 50 0 59 11 92 115 55
176 82 189 235 112z m-2947 11 c35 -12 63 -31 63 -41 0 -11 -8 -14 -19 -8 -10
6 -24 -7 -31 -29 -7 -22 -21 -35 -31 -29 -11 6 -19 3 -19 -8 0 -10 -15 -25
-34 -32 -19 -7 -29 -7 -21 1 7 7 5 30 -6 51 -14 26 -14 37 1 37 13 0 17 9 10
20 -31 50 6 66 87 38z m5705 -170 c84 -76 21 -188 -106 -188 -114 0 -208 101
-161 172 50 73 195 82 267 16z m-432 -68 c-71 -73 -131 -103 -129 -65 1 19
163 144 188 145 11 0 -16 -36 -59 -80z m-2056 -72 c-19 -20 -74 31 -74 69 0
26 9 23 44 -12 24 -24 38 -50 30 -57z m-3088 2 c-6 -25 -106 -39 -106 -15 0
31 27 47 69 41 23 -3 39 -15 37 -26z m5035 -125 c54 -14 49 -54 -16 -124 l-55
-59 -176 21 c-128 16 -218 15 -328 -1 -176 -26 -179 -25 -139 53 40 76 70 99
143 111 82 12 523 12 571 -1z m361 -8 c121 -40 128 -57 81 -200 -96 -297 -109
-397 -52 -397 37 0 84 94 116 233 25 113 75 163 129 130 59 -37 -89 -427 -184
-485 -232 -142 -369 44 -304 413 61 346 67 355 214 306z m400 -107 c70 -72
166 -149 213 -172 143 -70 104 -113 -70 -77 -141 29 -171 51 -155 114 14 57
-71 157 -117 139 -20 -8 -26 0 -19 25 5 20 0 43 -12 50 -31 19 -27 51 5 51 14
0 84 -59 155 -130z"/>
<path d="M5519 3429 c-19 -23 -20 -36 -2 -54 17 -17 30 -13 51 16 46 63 1 98
-49 38z"/>
<path d="M5605 3369 c-44 -30 -62 -89 -28 -89 27 0 88 76 80 99 -5 14 -23 10
-52 -10z"/>
<path d="M5645 3287 c-43 -30 -63 -107 -29 -107 28 0 125 112 111 126 -19 19
-30 17 -82 -19z"/>
<path d="M5702 3192 c-100 -104 -73 -146 34 -53 71 61 81 78 59 97 -22 18 -42
9 -93 -44z"/>
<path d="M5745 3084 c-75 -64 -114 -146 -70 -143 34 2 209 177 196 197 -20 33
-33 27 -126 -54z"/>
<path d="M5781 2968 c-105 -87 -181 -189 -181 -242 0 -4 61 45 135 111 74 66
156 137 182 157 38 31 42 42 20 60 -21 17 -56 -2 -156 -86z"/>
<path d="M5846 2875 c-65 -58 -151 -133 -192 -167 -43 -36 -74 -81 -74 -105 0
-60 8 -56 126 59 57 56 156 143 219 193 107 84 128 125 66 125 -14 0 -79 -47
-145 -105z"/>
<path d="M5910 2776 c-297 -259 -296 -257 -277 -297 15 -33 30 -24 137 75 66
61 172 152 235 202 91 71 110 96 93 117 -32 38 -33 38 -188 -97z"/>
<path d="M6069 2735 c-252 -200 -391 -342 -364 -369 23 -23 51 -5 176 113 81
78 153 141 160 141 31 0 163 138 150 158 -20 33 -33 28 -122 -43z"/>
<path d="M6088 2587 c-87 -75 -181 -157 -210 -182 -28 -25 -67 -57 -86 -71
-22 -16 -29 -38 -21 -60 18 -47 29 -42 153 77 125 120 320 280 359 294 22 8
21 17 -5 44 -31 32 -43 26 -190 -102z"/>
<path d="M3073 3463 c-35 -39 -44 -83 -16 -83 24 0 83 69 83 97 0 34 -29 28
-67 -14z"/>
<path d="M3085 3338 c-75 -72 -113 -160 -70 -157 52 3 190 162 173 200 -17 37
-23 34 -103 -43z"/>
<path d="M3186 3274 c-9 -14 -60 -61 -114 -105 -83 -66 -152 -167 -152 -221 0
-8 47 30 105 84 58 54 135 121 171 148 48 36 63 60 53 85 -16 41 -41 45 -63 9z"/>
<path d="M3077 3010 c-167 -147 -237 -237 -207 -266 4 -5 87 62 184 149 97 86
197 171 222 187 32 21 42 41 33 65 -20 52 -24 49 -232 -135z"/>
<path d="M3138 2899 c-268 -231 -253 -214 -192 -230 42 -10 63 0 111 54 33 37
119 112 191 167 121 92 154 146 100 164 -11 4 -106 -66 -210 -155z"/>
<path d="M3329 2889 c-43 -40 -106 -96 -139 -127 -33 -30 -85 -71 -116 -91
-50 -33 -59 -87 -22 -129 4 -5 64 45 133 110 69 65 160 145 202 178 56 44 73
69 62 95 -19 48 -30 45 -120 -36z"/>
<path d="M2084 2675 c-59 -64 -55 -95 12 -95 74 0 130 43 121 91 -11 57 -81
58 -133 4z"/>
<path d="M4179 1988 c-116 -306 -159 -552 -97 -564 83 -16 214 497 148 584
-27 36 -30 35 -51 -20z"/>
<path d="M3427 1896 c-113 -53 -232 -476 -133 -476 74 0 146 120 194 322 34
146 16 190 -61 154z"/>
<path d="M5172 1834 c-87 -114 -141 -384 -81 -407 75 -29 188 166 219 379 19
122 -55 137 -138 28z"/>
<path d="M316 3225 c58 -4 148 -4 200 0 52 4 4 8 -106 8 -110 0 -152 -4 -94
-8z"/>
<path d="M783 3230 c15 -15 257 -17 271 -3 7 7 -53 13 -134 13 -81 0 -142 -4
-137 -10z"/>
<path d="M4046 3227 c14 -14 378 -10 392 4 5 5 -84 9 -198 9 -114 0 -201 -6
-194 -13z"/>
<path d="M4625 3226 c20 -5 30 -17 24 -27 -7 -11 9 -11 39 0 35 14 52 12 58
-5 5 -13 15 -18 23 -10 32 29 -15 56 -95 54 -46 -2 -68 -7 -49 -12z"/>
<path d="M6926 3225 c52 -4 133 -4 180 0 46 5 3 8 -96 8 -99 0 -137 -4 -84 -8z"/>
<path d="M7391 3222 c13 -13 355 -3 368 10 5 6 -77 8 -184 5 -107 -2 -189 -9
-184 -15z"/>
<path d="M7277 2658 c-17 -11 26 -18 111 -18 76 0 135 4 130 9 -18 18 -215 25
-241 9z"/>
<path d="M8115 2645 c47 -4 123 -4 170 0 47 5 9 8 -85 8 -93 0 -132 -3 -85 -8z"/>
<path d="M8585 2645 c41 -4 109 -4 150 0 41 5 8 8 -75 8 -82 0 -116 -3 -75 -8z"/>
<path d="M635 1788 c-22 -21 -18 -108 4 -108 28 0 36 25 23 77 -7 25 -19 39
-27 31z"/>
<path d="M5080 710 c0 -119 4 -213 9 -208 14 14 17 398 4 412 -7 7 -13 -85
-13 -204z"/>
</g>
</svg>
